<svg width="178.5" height="178.5" viewBox="0 0 178.5 178.5" xmlns="http://www.w3.org/2000/svg" xmlns:xlink="http://www.w3.org/1999/xlink" overflow="visible"><style>
.MsftOfcThm_Text2_Fill_v2 {
 fill:#F8F0E3; 
}
</style>
<defs></defs><path d="M178.5 174.9 3.6 0 0 0 178.5 178.5 178.5 174.9ZM178.5 167.3 11.2 0 7.6 0 178.5 170.9 178.5 167.3ZM178.5 159.7 18.7 0 15.1 0 178.4 163.3 178.4 159.7ZM178.5 152.1 26.3 0 22.7 0 178.4 155.7 178.4 152.1ZM178.5 144.6 33.9 0 30.3 0 178.5 148.2 178.5 144.6ZM178.5 137 41.5 0 37.9 0 178.5 140.6 178.5 137ZM178.5 129.4 49 0 45.4 0 178.4 133 178.4 129.4ZM178.5 121.9 56.6 0 53 0 178.5 125.5 178.5 121.9ZM178.5 114.3 64.2 0 60.6 0 178.5 117.9 178.5 114.3ZM178.5 106.7 71.8 0 68.2 0 178.5 110.3 178.5 106.7ZM178.5 99.1 79.3 0 75.7 0 178.4 102.7 178.4 99.1ZM178.5 91.6 86.9 0 83.3 0 178.5 95.2 178.5 91.6ZM178.5 84 94.5 0 90.9 0 178.5 87.6 178.5 84ZM178.5 76.4 102 0 98.4 0 178.4 80 178.4 76.4ZM178.5 68.8 109.6 0 106 0 178.4 72.4 178.4 68.8ZM178.5 61.3 117.2 0 113.6 0 178.5 64.9 178.5 61.3ZM178.5 53.7 124.8 0 121.2 0 178.5 57.3 178.5 53.7ZM178.5 46.1 132.3 0 128.7 0 178.4 49.7 178.4 46.1ZM178.5 38.6 139.9 0 136.3 0 178.5 42.1 178.5 38.6ZM178.5 31 147.5 0 143.9 0 178.5 34.6 178.5 31ZM178.5 23.4 155.1 0 151.5 0 178.5 27 178.5 23.4ZM178.5 15.8 162.6 0 159 0 178.4 19.4 178.4 15.8ZM178.5 8.3 170.2 0 166.6 0 178.5 11.9 178.5 8.3ZM174.2 0 178.5 4.3 178.5 0.7 177.8 0 174.2 0Z" class="MsftOfcThm_Text2_Fill_v2" fill="#F8F0E3"/></svg>