<svg width="180" height="180" viewBox="0 0 180 180" xmlns="http://www.w3.org/2000/svg" xmlns:xlink="http://www.w3.org/1999/xlink" overflow="visible"><style>
.MsftOfcThm_Text2_Fill_v2 {
 fill:#F8F0E3; 
}
</style>
<defs></defs><path d="M59.8 59.8 62.4 62.4 62.4 117.7 117.7 117.7 120.3 120.3 59.8 120.3 59.8 59.8ZM70.6 109.4 109.3 109.4 106.7 106.8 73.2 106.8 73.2 73.2 70.6 70.6 70.6 109.4ZM65.2 114.8 114.8 114.8 112.2 112.2 67.8 112.2 67.8 67.8 65.2 65.2 65.2 114.8ZM54.3 125.7 125.6 125.7 123 123.1 56.9 123.1 56.9 56.9 54.3 54.3 54.3 125.7ZM95.9 95.9 84.1 95.9 84.1 84.1 81.5 81.5 81.5 98.5 98.5 98.5 95.9 95.9ZM76.1 76.1 76.1 104 104 104 101.4 101.4 78.6 101.4 78.6 78.6 76.1 76.1ZM177.4 177.4 2.6 177.4 2.6 2.6 0 0 0 180 180 180 177.4 177.4ZM90.5 90.5 89.5 90.5 89.5 89.5 86.9 86.9 86.9 93 93.1 93 90.5 90.5ZM43.5 43.5 43.5 136.6 136.6 136.6 134 134 46 134 46 46 43.5 43.5ZM48.9 48.9 48.9 131.1 131.1 131.1 128.5 128.5 51.5 128.5 51.5 51.5 48.9 48.9ZM5.4 174.6 174.5 174.6 172 172 8 172 8 8 5.4 5.4 5.4 174.6ZM16.3 163.7 163.7 163.7 161.1 161.1 18.9 161.1 18.9 18.9 16.3 16.3 16.3 163.7ZM10.9 169.1 169.2 169.1 166.6 166.5 13.4 166.5 13.4 13.4 10.8 10.8 10.9 169.1ZM32.6 32.6 32.6 147.4 147.4 147.4 144.8 144.8 35.2 144.8 35.2 35.2 32.6 32.6ZM21.7 158.3 158.2 158.3 155.6 155.7 24.2 155.7 24.2 24.3 21.6 21.7 21.6 158.3ZM38 142 142 142 139.4 139.4 40.6 139.4 40.6 40.6 38 38 38 142ZM27.2 152.8 152.9 152.8 150.3 150.2 29.8 150.2 29.8 29.7 27.2 27.1 27.2 152.8Z" class="MsftOfcThm_Text2_Fill_v2" fill="#F8F0E3"/></svg>